Coordinates
version=1
nRows=22
nColumns=24
inDegrees=yes

Units are S.I. units (second, meters, Newtons, ...)
Angles are in degrees.

endheader
time	pelvis_tilt	pelvis_list	pelvis_rotation	pelvis_tx	pelvis_ty	pelvis_tz	hip_flexion_r	hip_adduction_r	hip_rotation_r	knee_angle_r	ankle_angle_r	subtalar_angle_r	mtp_angle_r	hip_flexion_l	hip_adduction_l	hip_rotation_l	knee_angle_l	ankle_angle_l	subtalar_angle_l	mtp_angle_l	lumbar_extension	lumbar_bending	lumbar_rotation
      1.11216667	     -6.57193302	     -0.65350451	     -5.38798031	      0.00622319	      1.02367272	      0.29568435	     -8.49235467	      0.87215818	      1.24100238	    -15.92572163	     21.09054618	      4.91962433	      4.81305395	     34.26963248	     -3.97127342	     -2.58756182	     -6.09006149	     12.44752825	      5.38890681	      2.89514303	    -11.23718153	      2.55939376	      6.06571513
      1.11633333	     -6.61528447	     -0.62053098	     -5.52362578	      0.01232992	      1.02280200	      0.29540625	     -8.57990032	      0.72628331	      1.15560101	    -16.35701960	     21.02785713	      5.27198975	      5.03490465	     34.31092725	     -3.95154079	     -2.53649928	     -6.59957057	     12.21364627	      5.21385714	      2.93673101	    -11.15094881	      2.38377486	      6.14292672
      1.12050000	     -6.61429697	     -0.60984534	     -5.65409058	      0.01843358	      1.02205927	      0.29514734	     -8.73273382	      0.61555199	      1.19428335	    -16.74774350	     20.79389649	      5.34851909	      5.07711316	     34.31443551	     -3.95208710	     -2.52696839	     -7.15531784	     11.98139080	      5.12040658	      2.94192708	    -11.14169500	      2.24843681	      6.12887163
      1.12466667	     -6.63528202	     -0.55302043	     -5.78820087	      0.02459646	      1.02129623	      0.29483783	     -8.80184982	      0.42985456	      1.04392166	    -17.26059798	     20.68654541	      5.75884500	      5.47418247	     34.31899295	     -3.90431837	     -2.50590479	     -7.68761874	     11.64730655	      4.89263595	      3.02066020	    -11.05421960	      2.04199821	      6.18451632
      1.12883333	     -6.62369500	     -0.50451622	     -5.91680876	      0.03077913	      1.02067403	      0.29456109	     -8.93229944	      0.26735265	      1.04131871	    -17.70145999	     20.32960340	      5.85580355	      9.00893975	     34.27452049	     -3.85974746	     -2.45328379	     -8.20768042	     11.22318388	      4.60206700	      3.78040284	    -11.03366619	      1.83866306	      6.14843641
      1.13300000	     -6.66694557	     -0.46388687	     -6.02366345	      0.03700094	      1.01997731	      0.29424171	     -8.98470165	      0.12090453	      1.00327612	    -18.19565162	     20.02164124	      5.99197702	      9.04520835	     34.33185497	     -3.82733998	     -2.51972618	     -8.82930270	     10.85191540	      4.57253288	      3.77987389	    -10.91832960	      1.65780889	      6.14252217
      1.13716667	     -6.69708958	     -0.39822331	     -6.12838304	      0.04322527	      1.01934274	      0.29390804	     -9.02153674	     -0.05982733	      0.93374886	    -18.74387510	     19.74462179	      6.21639254	      9.14108002	     34.37508233	     -3.76815773	     -2.58698000	     -9.46187919	     10.43487277	      4.47572229	      3.78702706	    -10.83584896	      1.43353673	      6.12809147
      1.14133333	     -6.72278896	     -0.33280651	     -6.21984993	      0.04946176	      1.01877054	      0.29353406	     -9.04780285	     -0.24039938	      0.86011802	    -19.31781898	     19.40977712	      6.40716471	      9.26726488	     34.41536058	     -3.70213727	     -2.64558485	    -10.10322653	      9.98862639	      4.35559142	      3.79590351	    -10.75228230	      1.21616670	      6.09726881
      1.14550000	     -6.71071470	     -0.24990568	     -6.30822931	      0.05567675	      1.01832205	      0.29312315	     -9.08138746	     -0.45144257	      0.75406712	    -19.94273668	     19.02786674	      6.59739924	     11.85368975	     34.39408070	     -3.60361699	     -2.61835667	    -10.70232130	      9.44900499	      3.97841076	      4.09333590	    -10.72905132	      0.99164653	      6.03159078
      1.14966667	     -6.77169629	     -0.18102323	     -6.36414419	      0.06193991	      1.01777290	      0.29267776	     -9.02565326	     -0.63014869	      0.63695494	    -20.60193938	     18.61974596	      6.75430753	     11.94910701	     34.51448559	     -3.53073683	     -2.74303879	    -11.44017367	      9.03350878	      4.00059102	      4.09295485	    -10.58546370	      0.77836733	      5.99524061
      1.15383333	     -6.78966732	     -0.09996426	     -6.42099642	      0.06820150	      1.01738634	      0.29223994	     -9.00181922	     -0.82345178	      0.56075838	    -21.27344603	     18.12997009	      6.88242113	     12.03526852	     34.56886226	     -3.44148504	     -2.83267559	    -12.13977170	      8.56289734	      3.92893092	      4.08770388	    -10.51265086	      0.53073838	      5.93511384
      1.15800000	     -6.79438583	     -0.01801985	     -6.46645611	      0.07445322	      1.01706752	      0.29174485	     -8.95907150	     -1.02418405	      0.44470747	    -22.00628090	     17.62411254	      6.97762149	     12.11268933	     34.62133079	     -3.34523093	     -2.93323306	    -12.86934669	      8.12512566	      3.82473447	      4.08071779	    -10.44617619	      0.32119734	      5.87550013
      1.16216667	     -6.85738971	      0.09408333	     -6.49799040	      0.08071905	      1.01670106	      0.29122922	     -8.81792289	     -1.25230773	      0.31276337	    -22.80342295	     17.13058585	      7.20579159	     12.30639892	     34.73659731	     -3.21740164	     -2.99094313	    -13.59899049	      7.66990965	      3.71107676	      4.07276143	    -10.31554380	      0.02279860	      5.76959000
      1.16633333	     -6.88640172	      0.18302837	     -6.50541844	      0.08692955	      1.01644052	      0.29061557	     -8.68431671	     -1.46300756	      0.14240062	    -23.64290839	     16.52180444	      7.30095310	     16.76334806	     34.82422084	     -3.08737918	     -2.97823921	    -14.34273027	      7.23152372	      3.46591307	      3.99545639	    -10.23298972	     -0.18695266	      5.65217846
      1.17050000	     -6.90486070	      0.30287928	     -6.51365622	      0.09318118	      1.01625485	      0.29003410	     -8.53493721	     -1.70621751	     -0.01793113	    -24.53611712	     15.94740352	      7.45326507	     16.81862160	     34.90748715	     -2.94345676	     -3.07639086	    -15.11224402	      6.89094631	      3.42427520	      3.98250264	    -10.15762569	     -0.47243985	      5.54835787
      1.17466667	     -6.92636507	      0.41639507	     -6.50290946	      0.09940573	      1.01611938	      0.28939680	     -8.35466948	     -1.94115131	     -0.18312924	    -25.47562283	     15.33192072	      7.59548492	     16.93599297	     34.99442015	     -2.79143522	     -3.12302948	    -15.88075950	      6.55869702	      3.33717219	      3.96006425	    -10.07920625	     -0.73707672	      5.42680489
      1.17883333	     -6.95779775	      0.53507042	     -6.47943199	      0.10562006	      1.01602116	      0.28872212	     -8.13282644	     -2.18103859	     -0.35370896	    -26.46683055	     14.68431457	      7.72704768	     17.13698613	     35.08915141	     -2.62611976	     -3.14480476	    -16.64450922	      6.25579389	      3.22522461	      3.92377999	     -9.98935698	     -1.00390797	      5.28953361
      1.18300000	     -6.93054112	      0.67011108	     -6.43685486	      0.11181082	      1.01609440	      0.28800748	     -7.95208399	     -2.44412129	     -0.53360373	    -27.47803160	     13.92311337	      7.79087907	     19.80615604	     35.09511458	     -2.41602729	     -3.08271526	    -17.35103178	      5.96233523	      2.98740151	      3.47427569	     -9.98304257	     -1.29886174	      5.06722801
      1.18716667	     -6.93871907	      0.77855168	     -6.37996694	      0.11798348	      1.01613704	      0.28728250	     -7.70607097	     -2.66787091	     -0.70247656	    -28.54576897	     13.16323855	      7.86432428	     19.83592595	     35.16214084	     -2.24484613	     -3.10299584	    -18.10997909	      5.76208331	      3.00776653	      3.46250549	     -9.93288508	     -1.57205843	      5.01364048
      1.19133333	     -6.96102146	      0.90874947	     -6.32135248	      0.12412210	      1.01618647	      0.28651579	     -7.39533938	     -2.92265907	     -0.89294979	    -29.70176626	     12.46100621	      7.96427259	     19.93185046	     35.23064122	     -2.04644798	     -3.10806222	    -18.83896126	      5.57285698	      2.94608927	      3.43286165	     -9.85775924	     -1.83571855	      4.87456182
      1.19550000	     -6.93828472	      1.03439184	     -6.24278957	      0.13023330	      1.01637974	      0.28573745	     -7.12162209	     -3.16765351	     -1.06060397	    -30.86138426	     11.64985269	      8.00986022	     20.00316280	     35.23031301	     -1.83233983	     -3.06791109	    -19.52354130	      5.42384868	      2.89414074	      3.40796615	     -9.85472507	     -2.13238087	      4.75051060
      1.19966667	     -6.94509700	      1.17417354	     -6.15291211	      0.13630265	      1.01653576	      0.28490443	     -6.76801641	     -3.43351169	     -1.26621174	    -32.11055864	     10.90566642	      8.07265290	     20.17497245	     35.25095975	     -1.59483808	     -3.01397859	    -20.17847039	      5.26284174	      2.76896633	      3.34879836	     -9.80225010	     -2.39938161	      4.54855992
